<svg width="308" height="62" viewBox="0 0 308 62" fill="none" xmlns="http://www.w3.org/2000/svg">
<path d="M3.32 45V17H8.68L20.6 36.76H17.76L29.48 17H34.8L34.88 45H28.8L28.76 26.32H29.88L20.52 42.04H17.6L8.04 26.32H9.4V45H3.32Z" fill="#00D7C0"/>
<path d="M37.8431 45L50.3231 17H56.7231L69.2431 45H62.4431L52.2031 20.28H54.7631L44.4831 45H37.8431ZM44.0831 39L45.8031 34.08H60.2031L61.9631 39H44.0831ZM72.1481 45V17H77.5081L94.0281 37.16H91.4281V17H97.8281V45H92.5081L75.9481 24.84H78.5481V45H72.1481ZM100.773 45L113.253 17H119.653L132.173 45H125.373L115.133 20.28H117.693L107.413 45H100.773ZM107.013 39L108.733 34.08H123.133L124.893 39H107.013ZM148.207 45.48C145.994 45.48 143.954 45.1333 142.087 44.44C140.247 43.72 138.634 42.7067 137.247 41.4C135.887 40.0933 134.821 38.56 134.047 36.8C133.301 35.04 132.927 33.1067 132.927 31C132.927 28.8933 133.301 26.96 134.047 25.2C134.821 23.44 135.901 21.9067 137.287 20.6C138.674 19.2933 140.301 18.2933 142.167 17.6C144.034 16.88 146.087 16.52 148.327 16.52C150.807 16.52 153.034 16.9333 155.007 17.76C157.007 18.5867 158.687 19.7867 160.047 21.36L155.887 25.2C154.874 24.1333 153.767 23.3467 152.567 22.84C151.367 22.3067 150.061 22.04 148.647 22.04C147.287 22.04 146.047 22.2533 144.927 22.68C143.807 23.1067 142.834 23.72 142.007 24.52C141.207 25.32 140.581 26.2667 140.127 27.36C139.701 28.4533 139.487 29.6667 139.487 31C139.487 32.3067 139.701 33.5067 140.127 34.6C140.581 35.6933 141.207 36.6533 142.007 37.48C142.834 38.28 143.794 38.8933 144.887 39.32C146.007 39.7467 147.234 39.96 148.567 39.96C149.847 39.96 151.087 39.76 152.287 39.36C153.514 38.9333 154.701 38.2267 155.847 37.24L159.527 41.92C158.007 43.0667 156.234 43.9467 154.207 44.56C152.207 45.1733 150.207 45.48 148.207 45.48ZM153.607 41.08V30.56H159.527V41.92L153.607 41.08ZM171.507 28.28H184.987V33.32H171.507V28.28ZM171.987 39.8H187.227V45H165.547V17H186.707V22.2H171.987V39.8ZM192.383 45V17H204.503C207.009 17 209.169 17.4133 210.983 18.24C212.796 19.04 214.196 20.2 215.183 21.72C216.169 23.24 216.663 25.0533 216.663 27.16C216.663 29.24 216.169 31.04 215.183 32.56C214.196 34.08 212.796 35.2533 210.983 36.08C209.169 36.88 207.009 37.28 204.503 37.28H195.983L198.863 34.36V45H192.383ZM198.863 35.08L195.983 32H204.143C206.143 32 207.636 31.5733 208.623 30.72C209.609 29.8667 210.103 28.68 210.103 27.16C210.103 25.6133 209.609 24.4133 208.623 23.56C207.636 22.7067 206.143 22.28 204.143 22.28H195.983L198.863 19.2V35.08ZM216.202 45L228.683 17H235.083L247.603 45H240.803L230.563 20.28H233.123L222.843 45H216.202ZM222.442 39L224.163 34.08H238.563L240.323 39H222.442ZM259.708 45.48C257.468 45.48 255.321 45.1867 253.268 44.6C251.214 43.9867 249.561 43.2 248.308 42.24L250.508 37.36C251.708 38.2133 253.121 38.92 254.748 39.48C256.401 40.0133 258.068 40.28 259.748 40.28C261.028 40.28 262.054 40.16 262.828 39.92C263.628 39.6533 264.214 39.2933 264.588 38.84C264.961 38.3867 265.148 37.8667 265.148 37.28C265.148 36.5333 264.854 35.9467 264.268 35.52C263.681 35.0667 262.908 34.7067 261.948 34.44C260.988 34.1467 259.921 33.88 258.748 33.64C257.601 33.3733 256.441 33.0533 255.268 32.68C254.121 32.3067 253.068 31.8267 252.108 31.24C251.148 30.6533 250.361 29.88 249.748 28.92C249.161 27.96 248.868 26.7333 248.868 25.24C248.868 23.64 249.294 22.1867 250.148 20.88C251.028 19.5467 252.334 18.4933 254.068 17.72C255.828 16.92 258.028 16.52 260.668 16.52C262.428 16.52 264.161 16.7333 265.868 17.16C267.574 17.56 269.081 18.1733 270.388 19L268.388 23.92C267.081 23.1733 265.774 22.6267 264.468 22.28C263.161 21.9067 261.881 21.72 260.628 21.72C259.374 21.72 258.348 21.8667 257.548 22.16C256.748 22.4533 256.174 22.84 255.828 23.32C255.481 23.7733 255.308 24.3067 255.308 24.92C255.308 25.64 255.601 26.2267 256.188 26.68C256.774 27.1067 257.548 27.4533 258.508 27.72C259.468 27.9867 260.521 28.2533 261.668 28.52C262.841 28.7867 264.001 29.0933 265.148 29.44C266.321 29.7867 267.388 30.2533 268.348 30.84C269.308 31.4267 270.081 32.2 270.668 33.16C271.281 34.12 271.588 35.3333 271.588 36.8C271.588 38.3733 271.148 39.8133 270.268 41.12C269.388 42.4267 268.068 43.48 266.308 44.28C264.574 45.08 262.374 45.48 259.708 45.48ZM285.215 45.48C282.975 45.48 280.829 45.1867 278.775 44.6C276.722 43.9867 275.069 43.2 273.815 42.24L276.015 37.36C277.215 38.2133 278.629 38.92 280.255 39.48C281.909 40.0133 283.575 40.28 285.255 40.28C286.535 40.28 287.562 40.16 288.335 39.92C289.135 39.6533 289.722 39.2933 290.095 38.84C290.469 38.3867 290.655 37.8667 290.655 37.28C290.655 36.5333 290.362 35.9467 289.775 35.52C289.189 35.0667 288.415 34.7067 287.455 34.44C286.495 34.1467 285.429 33.88 284.255 33.64C283.109 33.3733 281.949 33.0533 280.775 32.68C279.629 32.3067 278.575 31.8267 277.615 31.24C276.655 30.6533 275.869 29.88 275.255 28.92C274.669 27.96 274.375 26.7333 274.375 25.24C274.375 23.64 274.802 22.1867 275.655 20.88C276.535 19.5467 277.842 18.4933 279.575 17.72C281.335 16.92 283.535 16.52 286.175 16.52C287.935 16.52 289.669 16.7333 291.375 17.16C293.082 17.56 294.589 18.1733 295.895 19L293.895 23.92C292.589 23.1733 291.282 22.6267 289.975 22.28C288.669 21.9067 287.389 21.72 286.135 21.72C284.882 21.72 283.855 21.8667 283.055 22.16C282.255 22.4533 281.682 22.84 281.335 23.32C280.989 23.7733 280.815 24.3067 280.815 24.92C280.815 25.64 281.109 26.2267 281.695 26.68C282.282 27.1067 283.055 27.4533 284.015 27.72C284.975 27.9867 286.029 28.2533 287.175 28.52C288.349 28.7867 289.509 29.0933 290.655 29.44C291.829 29.7867 292.895 30.2533 293.855 30.84C294.815 31.4267 295.589 32.2 296.175 33.16C296.789 34.12 297.095 35.3333 297.095 36.8C297.095 38.3733 296.655 39.8133 295.775 41.12C294.895 42.4267 293.575 43.48 291.815 44.28C290.082 45.08 287.882 45.48 285.215 45.48Z" fill="black"/>
</svg>
