<svg width="308" height="62" viewBox="0 0 308 62" fill="none" xmlns="http://www.w3.org/2000/svg">
<path d="M3.76 45V17H8.04L20.28 37.44H18.04L30.08 17H34.36L34.4 45H29.48L29.44 24.72H30.48L20.24 41.8H17.92L7.52 24.72H8.72V45H3.76Z" fill="#00D7C0"/>
<path d="M38.0031 45L50.6031 17H55.7231L68.3631 45H62.9231L52.0831 19.76H54.1631L43.3631 45H38.0031ZM43.8031 38.52L45.2031 34.44H60.3231L61.7231 38.52H43.8031ZM71.9241 45V17H76.2041L93.7641 38.56H91.6441V17H96.8041V45H92.5241L74.9641 23.44H77.0841V45H71.9241ZM100.347 45L112.947 17H118.067L130.707 45H125.267L114.427 19.76H116.507L105.707 45H100.347ZM106.147 38.52L107.547 34.44H122.667L124.067 38.52H106.147ZM146.957 45.4C144.771 45.4 142.757 45.0533 140.917 44.36C139.104 43.64 137.517 42.64 136.157 41.36C134.797 40.0533 133.744 38.52 132.997 36.76C132.251 35 131.877 33.08 131.877 31C131.877 28.92 132.251 27 132.997 25.24C133.744 23.48 134.797 21.96 136.157 20.68C137.544 19.3733 139.157 18.3733 140.997 17.68C142.837 16.96 144.851 16.6 147.037 16.6C149.411 16.6 151.544 16.9867 153.437 17.76C155.357 18.5333 156.971 19.6667 158.277 21.16L154.997 24.36C153.904 23.2667 152.717 22.4667 151.437 21.96C150.184 21.4267 148.797 21.16 147.277 21.16C145.811 21.16 144.451 21.4 143.197 21.88C141.944 22.36 140.864 23.04 139.957 23.92C139.051 24.8 138.344 25.84 137.837 27.04C137.357 28.24 137.117 29.56 137.117 31C137.117 32.4133 137.357 33.72 137.837 34.92C138.344 36.12 139.051 37.1733 139.957 38.08C140.864 38.96 141.931 39.64 143.157 40.12C144.384 40.6 145.744 40.84 147.237 40.84C148.624 40.84 149.957 40.6267 151.237 40.2C152.544 39.7467 153.784 39 154.957 37.96L157.917 41.84C156.451 43.0133 154.744 43.9067 152.797 44.52C150.877 45.1067 148.931 45.4 146.957 45.4ZM152.997 41.16V30.68H157.917V41.84L152.997 41.16ZM169.576 28.64H183.496V32.92H169.576V28.64ZM169.976 40.64H185.776V45H164.776V17H185.216V21.36H169.976V40.64ZM191.573 45V17H203.093C205.573 17 207.693 17.4 209.453 18.2C211.239 19 212.613 20.1467 213.573 21.64C214.533 23.1333 215.013 24.9067 215.013 26.96C215.013 29.0133 214.533 30.7867 213.573 32.28C212.613 33.7733 211.239 34.92 209.453 35.72C207.693 36.52 205.573 36.92 203.093 36.92H194.453L196.773 34.48V45H191.573ZM196.773 35.04L194.453 32.52H202.853C205.146 32.52 206.866 32.04 208.012 31.08C209.186 30.0933 209.773 28.72 209.773 26.96C209.773 25.1733 209.186 23.8 208.012 22.84C206.866 21.88 205.146 21.4 202.853 21.4H194.453L196.773 18.84V35.04ZM214.839 45L227.439 17H232.559L245.199 45H239.759L228.919 19.76H230.999L220.199 45H214.839ZM220.639 38.52L222.039 34.44H237.159L238.559 38.52H220.639ZM257.44 45.4C255.253 45.4 253.16 45.0933 251.16 44.48C249.16 43.84 247.573 43.0267 246.4 42.04L248.2 38C249.32 38.88 250.707 39.6133 252.36 40.2C254.013 40.7867 255.707 41.08 257.44 41.08C258.907 41.08 260.093 40.92 261 40.6C261.907 40.28 262.573 39.8533 263 39.32C263.427 38.76 263.64 38.1333 263.64 37.44C263.64 36.5867 263.333 35.9067 262.72 35.4C262.107 34.8667 261.307 34.4533 260.32 34.16C259.36 33.84 258.28 33.5467 257.08 33.28C255.907 33.0133 254.72 32.7067 253.52 32.36C252.347 31.9867 251.267 31.52 250.28 30.96C249.32 30.3733 248.533 29.6 247.92 28.64C247.307 27.68 247 26.4533 247 24.96C247 23.44 247.4 22.0533 248.2 20.8C249.027 19.52 250.267 18.5067 251.92 17.76C253.6 16.9867 255.72 16.6 258.28 16.6C259.96 16.6 261.627 16.8133 263.28 17.24C264.933 17.6667 266.373 18.28 267.6 19.08L265.96 23.12C264.707 22.3733 263.413 21.8267 262.08 21.48C260.747 21.1067 259.467 20.92 258.24 20.92C256.8 20.92 255.627 21.0933 254.72 21.44C253.84 21.7867 253.187 22.24 252.76 22.8C252.36 23.36 252.16 24 252.16 24.72C252.16 25.5733 252.453 26.2667 253.04 26.8C253.653 27.3067 254.44 27.7067 255.4 28C256.387 28.2933 257.48 28.5867 258.68 28.88C259.88 29.1467 261.067 29.4533 262.24 29.8C263.44 30.1467 264.52 30.6 265.48 31.16C266.467 31.72 267.253 32.48 267.84 33.44C268.453 34.4 268.76 35.6133 268.76 37.08C268.76 38.5733 268.347 39.96 267.52 41.24C266.72 42.4933 265.48 43.5067 263.8 44.28C262.12 45.0267 260 45.4 257.44 45.4ZM282.596 45.4C280.41 45.4 278.316 45.0933 276.316 44.48C274.316 43.84 272.73 43.0267 271.556 42.04L273.356 38C274.476 38.88 275.863 39.6133 277.516 40.2C279.17 40.7867 280.863 41.08 282.596 41.08C284.063 41.08 285.25 40.92 286.156 40.6C287.063 40.28 287.73 39.8533 288.156 39.32C288.583 38.76 288.796 38.1333 288.796 37.44C288.796 36.5867 288.49 35.9067 287.876 35.4C287.263 34.8667 286.463 34.4533 285.476 34.16C284.516 33.84 283.436 33.5467 282.236 33.28C281.063 33.0133 279.876 32.7067 278.676 32.36C277.503 31.9867 276.423 31.52 275.436 30.96C274.476 30.3733 273.69 29.6 273.076 28.64C272.463 27.68 272.156 26.4533 272.156 24.96C272.156 23.44 272.556 22.0533 273.356 20.8C274.183 19.52 275.423 18.5067 277.076 17.76C278.756 16.9867 280.876 16.6 283.436 16.6C285.116 16.6 286.783 16.8133 288.436 17.24C290.09 17.6667 291.53 18.28 292.756 19.08L291.116 23.12C289.863 22.3733 288.57 21.8267 287.236 21.48C285.903 21.1067 284.623 20.92 283.396 20.92C281.956 20.92 280.783 21.0933 279.876 21.44C278.996 21.7867 278.343 22.24 277.916 22.8C277.516 23.36 277.316 24 277.316 24.72C277.316 25.5733 277.61 26.2667 278.196 26.8C278.81 27.3067 279.596 27.7067 280.556 28C281.543 28.2933 282.636 28.5867 283.836 28.88C285.036 29.1467 286.223 29.4533 287.396 29.8C288.596 30.1467 289.676 30.6 290.636 31.16C291.623 31.72 292.41 32.48 292.996 33.44C293.61 34.4 293.916 35.6133 293.916 37.08C293.916 38.5733 293.503 39.96 292.676 41.24C291.876 42.4933 290.636 43.5067 288.956 44.28C287.276 45.0267 285.156 45.4 282.596 45.4Z" fill="black"/>
</svg>