<svg width="376" height="62" viewBox="0 0 376 62" fill="none" xmlns="http://www.w3.org/2000/svg">
<path d="M3.36 48V14.4H11.184L25.104 37.248H20.976L34.512 14.4H42.336L42.432 48H33.696L33.6 27.696H35.088L24.96 44.688H20.736L10.32 27.696H12.144V48H3.36Z" fill="#00D7C0"/>
<path d="M45.1249 48L59.9569 14.4H69.3169L84.1969 48H74.3089L62.6929 19.056H66.4369L54.8209 48H45.1249ZM53.2369 41.472L55.6849 34.464H72.1009L74.5489 41.472H53.2369ZM86.8913 48V14.4H94.7153L113.243 36.768H109.547V14.4H118.859V48H111.035L92.5073 25.632H96.2032V48H86.8913ZM121.531 48L136.363 14.4H145.723L160.603 48H150.715L139.099 19.056H142.843L131.227 48H121.531ZM129.643 41.472L132.091 34.464H148.507L150.955 41.472H129.643ZM179.629 48.672C176.973 48.672 174.509 48.256 172.237 47.424C169.965 46.56 167.997 45.344 166.333 43.776C164.701 42.208 163.421 40.368 162.493 38.256C161.565 36.112 161.101 33.76 161.101 31.2C161.101 28.64 161.565 26.304 162.493 24.192C163.421 22.048 164.717 20.192 166.381 18.624C168.045 17.056 170.013 15.856 172.285 15.024C174.589 14.16 177.101 13.728 179.821 13.728C182.989 13.728 185.821 14.256 188.317 15.312C190.813 16.368 192.877 17.888 194.509 19.872L188.461 25.344C187.309 24.096 186.061 23.168 184.717 22.56C183.405 21.92 181.933 21.6 180.301 21.6C178.861 21.6 177.549 21.824 176.365 22.272C175.181 22.72 174.173 23.376 173.341 24.24C172.509 25.072 171.853 26.08 171.373 27.264C170.925 28.416 170.701 29.728 170.701 31.2C170.701 32.608 170.925 33.904 171.373 35.088C171.853 36.272 172.509 37.296 173.341 38.16C174.173 38.992 175.165 39.648 176.317 40.128C177.501 40.576 178.797 40.8 180.205 40.8C181.613 40.8 182.989 40.576 184.333 40.128C185.677 39.648 187.037 38.848 188.413 37.728L193.741 44.4C191.821 45.776 189.597 46.832 187.069 47.568C184.541 48.304 182.061 48.672 179.629 48.672ZM185.341 43.152V30.48H193.741V44.4L185.341 43.152ZM208.502 27.408H224.102V34.512H208.502V27.408ZM209.174 40.656H226.742V48H199.766V14.4H226.118V21.744H209.174V40.656ZM232.016 48V14.4H247.376C250.448 14.4 253.088 14.896 255.296 15.888C257.536 16.88 259.264 18.32 260.48 20.208C261.696 22.064 262.304 24.272 262.304 26.832C262.304 29.36 261.696 31.552 260.48 33.408C259.264 35.264 257.536 36.704 255.296 37.728C253.088 38.72 250.448 39.216 247.376 39.216H237.296L241.52 35.088V48H232.016ZM241.52 36.096L237.296 31.728H246.8C248.784 31.728 250.256 31.296 251.216 30.432C252.208 29.568 252.704 28.368 252.704 26.832C252.704 25.264 252.208 24.048 251.216 23.184C250.256 22.32 248.784 21.888 246.8 21.888H237.296L241.52 17.52V36.096ZM261.219 48L276.051 14.4H285.411L300.291 48H290.403L278.787 19.056H282.531L270.915 48H261.219ZM269.331 41.472L271.779 34.464H288.195L290.643 41.472H269.331ZM314.793 48.672C312.041 48.672 309.385 48.336 306.825 47.664C304.297 46.96 302.233 46.064 300.633 44.976L303.753 37.968C305.257 38.928 306.985 39.728 308.937 40.368C310.921 40.976 312.889 41.28 314.841 41.28C316.153 41.28 317.209 41.168 318.009 40.944C318.809 40.688 319.385 40.368 319.737 39.984C320.121 39.568 320.313 39.088 320.313 38.544C320.313 37.776 319.961 37.168 319.257 36.72C318.553 36.272 317.641 35.904 316.521 35.616C315.401 35.328 314.153 35.04 312.777 34.752C311.433 34.464 310.073 34.096 308.697 33.648C307.353 33.2 306.121 32.624 305.001 31.92C303.881 31.184 302.969 30.24 302.265 29.088C301.561 27.904 301.209 26.416 301.209 24.624C301.209 22.608 301.753 20.784 302.841 19.152C303.961 17.52 305.625 16.208 307.833 15.216C310.041 14.224 312.793 13.728 316.089 13.728C318.297 13.728 320.457 13.984 322.569 14.496C324.713 14.976 326.617 15.696 328.281 16.656L325.353 23.712C323.753 22.848 322.169 22.208 320.601 21.792C319.033 21.344 317.513 21.12 316.041 21.12C314.729 21.12 313.673 21.264 312.873 21.552C312.073 21.808 311.497 22.16 311.145 22.608C310.793 23.056 310.617 23.568 310.617 24.144C310.617 24.88 310.953 25.472 311.625 25.92C312.329 26.336 313.241 26.688 314.361 26.976C315.513 27.232 316.761 27.504 318.105 27.792C319.481 28.08 320.841 28.448 322.185 28.896C323.561 29.312 324.809 29.888 325.929 30.624C327.049 31.328 327.945 32.272 328.617 33.456C329.321 34.608 329.673 36.064 329.673 37.824C329.673 39.776 329.113 41.584 327.993 43.248C326.905 44.88 325.257 46.192 323.049 47.184C320.873 48.176 318.121 48.672 314.793 48.672ZM345.871 48.672C343.119 48.672 340.463 48.336 337.903 47.664C335.375 46.96 333.311 46.064 331.711 44.976L334.831 37.968C336.335 38.928 338.063 39.728 340.015 40.368C341.999 40.976 343.967 41.28 345.919 41.28C347.231 41.28 348.287 41.168 349.087 40.944C349.887 40.688 350.463 40.368 350.815 39.984C351.199 39.568 351.391 39.088 351.391 38.544C351.391 37.776 351.039 37.168 350.335 36.72C349.631 36.272 348.719 35.904 347.599 35.616C346.479 35.328 345.231 35.04 343.855 34.752C342.511 34.464 341.151 34.096 339.775 33.648C338.431 33.2 337.199 32.624 336.079 31.92C334.959 31.184 334.047 30.24 333.343 29.088C332.639 27.904 332.287 26.416 332.287 24.624C332.287 22.608 332.831 20.784 333.919 19.152C335.039 17.52 336.703 16.208 338.911 15.216C341.119 14.224 343.871 13.728 347.167 13.728C349.375 13.728 351.535 13.984 353.647 14.496C355.791 14.976 357.695 15.696 359.359 16.656L356.431 23.712C354.831 22.848 353.247 22.208 351.679 21.792C350.111 21.344 348.591 21.12 347.119 21.12C345.807 21.12 344.751 21.264 343.951 21.552C343.151 21.808 342.575 22.16 342.223 22.608C341.871 23.056 341.695 23.568 341.695 24.144C341.695 24.88 342.031 25.472 342.703 25.92C343.407 26.336 344.319 26.688 345.439 26.976C346.591 27.232 347.839 27.504 349.183 27.792C350.559 28.08 351.919 28.448 353.263 28.896C354.639 29.312 355.887 29.888 357.007 30.624C358.127 31.328 359.023 32.272 359.695 33.456C360.399 34.608 360.751 36.064 360.751 37.824C360.751 39.776 360.191 41.584 359.071 43.248C357.983 44.88 356.335 46.192 354.127 47.184C351.951 48.176 349.199 48.672 345.871 48.672Z" fill="black"/>
</svg>
